<svg width="80" height="80" viewBox="0 0 80 80" fill="none" xmlns="http://www.w3.org/2000/svg">
<path fill-rule="evenodd" clip-rule="evenodd" d="M35.3008 37.3683L35.2008 36.7016C33.0674 23.7683 38.0341 15.8349 43.8008 11.4349C44.3341 11.0682 44.1009 10.2016 43.4342 10.1683C28.4675 9.73492 16.0674 14.5016 10.2008 17.2349C7.93409 18.3016 6.50076 21.2016 6.66743 23.7349C6.80076 25.6683 7.20071 27.0016 7.86738 28.8016C15.034 48.5016 26.7674 45.1016 33.9341 40.6016C35.0007 39.9349 35.5342 38.6349 35.3008 37.3683ZM56.1679 62.8322C55.9013 63.1322 55.3681 62.7989 55.5014 62.4322C56.9681 57.5656 58.868 44.7322 41.868 36.5989C40.8347 36.0989 40.0679 35.1656 39.9346 34.0322C37.8679 15.4989 53.8348 12.1656 53.8348 12.1656C55.1348 11.8989 56.5014 11.8989 57.7681 12.2655C61.3681 13.2322 65.0347 14.5656 68.7347 16.3656C71.9013 17.8989 73.7346 21.2322 73.2679 24.7322C72.1679 32.9989 68.5013 48.9322 56.1679 62.8322ZM50.233 62.2672L46.8663 69.6672C45.9997 71.5339 44.7329 73.1672 43.0329 74.3005C41.2996 75.4672 39.0329 75.5672 37.2329 74.4339C31.7663 70.9672 19.8331 62.0672 12.5998 46.6339C12.3331 46.1005 13.0663 45.5672 13.533 45.9005C15.433 47.2339 17.4663 48.1672 19.6996 48.7005C21.0662 49.0005 22.4664 49.1339 23.7997 49.1339C29.9997 49.1339 35.5996 45.9672 39.333 43.2339C40.433 42.4339 41.8996 42.2672 43.0329 42.9672C46.7663 45.3005 49.2664 48.1005 50.4998 51.2672C52.4846 56.4774 50.6029 61.3125 50.2776 62.1483L50.2776 62.1483C50.2533 62.2108 50.2377 62.2509 50.233 62.2672Z" fill="url(#paint0_linear_74_2279)"/>
<defs>
<linearGradient id="paint0_linear_74_2279" x1="19.8733" y1="21.1632" x2="74.4502" y2="86.6095" gradientUnits="userSpaceOnUse">
<stop stop-color="#FFB156"/>
<stop offset="1" stop-color="#F13321"/>
</linearGradient>
</defs>
</svg>
