<svg width="423" height="400" viewBox="0 0 423 400" fill="none" xmlns="http://www.w3.org/2000/svg">
<g clip-path="url(#clip0_74_2086)">
<path d="M1.6215 399.388V391.653H34.6589C38.8139 391.653 41.0434 389.312 41.0434 385.851C41.0434 382.085 38.7125 380.151 34.6589 380.151H14.3905C6.08053 380.151 0.912109 374.859 0.912109 367.531C0.912109 360.406 5.67517 355.113 14.4919 355.113H46.1105V362.849H14.5932C11.0463 362.849 9.01944 364.884 9.01944 368.243C9.01944 371.602 11.1476 373.637 14.4919 373.637H34.6589C43.5769 373.637 48.34 377.811 48.34 386.462C48.34 393.892 43.881 399.388 34.6589 399.388H1.6215Z" fill="#20212F"/>
<path d="M99.112 399.388V362.849H82.3906V355.113H123.535V362.849H106.814V399.388H99.112Z" fill="#20212F"/>
<path d="M202.075 355.113H209.574V379.846C209.574 393.587 202.886 399.999 185.759 399.999C168.835 399.999 162.045 393.587 162.045 379.846V355.113H169.95V379.846C169.95 388.701 173.902 392.365 185.962 392.365C198.123 392.365 201.974 388.701 201.974 379.846V355.113H202.075Z" fill="#20212F"/>
<path d="M252.342 399.388V355.113H277.88C290.345 355.113 299.364 363.968 299.364 376.793C299.364 389.617 290.345 399.388 277.88 399.388H252.342ZM277.88 391.653C285.785 391.653 291.662 385.546 291.662 377.2C291.662 368.854 285.886 362.849 277.88 362.849H260.044V391.653H277.88Z" fill="#20212F"/>
<path d="M339.798 355.113H332.096V399.388H339.798V355.113Z" fill="#20212F"/>
<path d="M390.672 399.388C378.41 399.388 369.289 389.617 369.289 376.793C369.289 363.765 378.41 355.113 390.672 355.113H401.414C414.183 355.113 423 363.968 423 376.793C423 389.617 413.981 399.388 401.414 399.388H390.672ZM401.414 391.653C409.522 391.653 415.298 385.546 415.298 377.2C415.298 368.854 409.522 362.849 401.414 362.849H390.672C382.768 362.849 376.991 368.752 376.991 377.2C376.991 385.546 382.768 391.653 390.672 391.653H401.414Z" fill="#20212F"/>
<path d="M44.185 0L0 44.3766V324.885L44.185 280.407V0Z" fill="#20212F"/>
<mask id="mask0_74_2086" style="mask-type:luminance" maskUnits="userSpaceOnUse" x="221" y="0" width="45" height="325">
<path d="M221.33 44.3766V324.885L265.515 280.407V0L221.33 44.3766Z" fill="white"/>
</mask>
<g mask="url(#mask0_74_2086)">
<path d="M265.515 0H221.33V324.885H265.515V0Z" fill="url(#paint0_linear_74_2086)"/>
</g>
<path d="M199.34 0.509766H113.199L66.582 47.3291V324.683H110.26V212.113L155.357 166.82L155.56 327.634L199.34 283.461V149.925H172.079L199.34 122.545V0.509766ZM106.612 142.698L106.511 80.6115L152.317 34.6065V96.693L106.612 142.698Z" fill="#20212F"/>
<path d="M389.15 325.088L422.998 291.398V325.088H389.15Z" fill="#20212F"/>
<path d="M420.972 60.5607V280.612L377.193 324.785H299.362L372.328 251.502L372.227 184.53L288.113 269.008V47.4309L334.832 0.509766H408L331.386 77.4563V150.535L420.972 60.5607Z" fill="#20212F"/>
</g>
<defs>
<linearGradient id="paint0_linear_74_2086" x1="265.515" y1="0" x2="166.736" y2="17.5466" gradientUnits="userSpaceOnUse">
<stop stop-color="#FF8034"/>
<stop offset="1" stop-color="#E9362B"/>
</linearGradient>
<clipPath id="clip0_74_2086">
<rect width="423" height="400" fill="white"/>
</clipPath>
</defs>
</svg>
