<svg width="1440" height="160" viewBox="0 0 1440 160" fill="none" xmlns="http://www.w3.org/2000/svg">
<path d="M99.6643 2.641V158.459H53.2662V80.7703L30.3821 158.459H-9.50776L-32.3919 80.7703V158.459H-79V2.641H-21.8946L10.857 96.1761L42.7689 2.641H99.6643Z" fill="url(#paint0_linear_74_222)"/>
<path d="M163.944 2.641L194.596 109.821L225.038 2.641H274.586L224.618 158.459H164.364L114.397 2.641H163.944Z" fill="url(#paint1_linear_74_222)"/>
<path d="M335.826 108.941V158.459H289.218V2.641H354.301C372.497 2.641 386.423 7.48281 396.081 17.1664C405.878 26.8501 410.777 39.8349 410.777 56.121C410.777 65.9514 408.607 74.9014 404.269 82.9711C399.93 90.8941 393.491 97.2031 384.954 101.898C376.556 106.593 366.338 108.941 354.301 108.941H335.826ZM349.053 70.4264C358.71 70.4264 363.539 65.658 363.539 56.121C363.539 46.5841 358.71 41.8157 349.053 41.8157H335.826V70.4264H349.053Z" fill="url(#paint2_linear_74_222)"/>
<path d="M516.24 108.941V158.459H469.632V2.641H534.716C552.911 2.641 566.838 7.48281 576.495 17.1664C586.293 26.8501 591.191 39.8349 591.191 56.121C591.191 65.9514 589.022 74.9014 584.683 82.9711C580.344 90.8941 573.906 97.2031 565.368 101.898C556.97 106.593 546.753 108.941 534.716 108.941H516.24ZM529.467 70.4264C539.125 70.4264 543.953 65.658 543.953 56.121C543.953 46.5841 539.125 41.8157 529.467 41.8157H516.24V70.4264H529.467Z" fill="url(#paint3_linear_74_222)"/>
<path d="M684.914 158.459L656.782 102.558V158.459H610.173V2.641H679.456C691.493 2.641 701.78 4.91518 710.318 9.46354C718.856 13.8652 725.224 19.9541 729.423 27.7304C733.762 35.3599 735.931 44.0165 735.931 53.7001C735.931 64.1174 733.132 73.3608 727.534 81.4305C722.075 89.5002 714.167 95.2957 703.81 98.8171L736.141 158.459H684.914ZM656.782 69.9863H675.257C679.736 69.9863 683.095 68.9592 685.334 66.9051C687.574 64.7043 688.693 61.3297 688.693 56.7813C688.693 52.6731 687.504 49.4452 685.124 47.0977C682.885 44.7501 679.596 43.5763 675.257 43.5763H656.782V69.9863Z" fill="url(#paint4_linear_74_222)"/>
<path d="M827.452 0C841.448 0 854.255 3.44796 865.872 10.3439C877.489 17.0931 886.656 26.5566 893.375 38.7345C900.233 50.9124 903.662 64.6309 903.662 79.89C903.662 95.149 900.233 108.867 893.375 121.045C886.656 133.223 877.419 142.76 865.662 149.656C854.045 156.552 841.308 160 827.452 160C813.455 160 800.578 156.552 788.821 149.656C777.204 142.76 767.967 133.223 761.109 121.045C754.25 108.867 750.821 95.149 750.821 79.89C750.821 64.6309 754.25 50.9124 761.109 38.7345C767.967 26.5566 777.204 17.0931 788.821 10.3439C800.578 3.44796 813.455 0 827.452 0ZM827.452 45.1169C818.074 45.1169 810.866 48.2714 805.827 54.5805C800.788 60.7428 798.269 69.1793 798.269 79.89C798.269 90.4539 800.788 98.8904 805.827 105.199C810.866 111.362 818.074 114.443 827.452 114.443C836.689 114.443 843.827 111.362 848.866 105.199C853.905 98.8904 856.424 90.4539 856.424 79.89C856.424 69.1793 853.905 60.7428 848.866 54.5805C843.827 48.2714 836.689 45.1169 827.452 45.1169Z" fill="url(#paint5_linear_74_222)"/>
<path d="M1063.87 80.11C1063.87 94.9289 1060.72 108.281 1054.42 120.165C1048.12 132.05 1039.1 141.44 1027.34 148.336C1015.72 155.085 1002.14 158.459 986.609 158.459H924.675V2.641H986.609C1002.14 2.641 1015.72 5.94223 1027.34 12.5447C1039.1 19.1472 1048.12 28.3173 1054.42 40.055C1060.72 51.7928 1063.87 65.1444 1063.87 80.11ZM982.41 114.883C992.907 114.883 1001.24 111.875 1007.39 105.86C1013.55 99.8441 1016.63 91.2609 1016.63 80.11C1016.63 68.9592 1013.55 60.376 1007.39 54.3604C1001.24 48.3448 992.907 45.337 982.41 45.337H971.283V114.883H982.41Z" fill="url(#paint6_linear_74_222)"/>
<path d="M1130.46 2.641V90.4539C1130.46 97.6433 1131.93 103.365 1134.87 107.62C1137.94 111.729 1142.84 113.783 1149.56 113.783C1156.28 113.783 1161.25 111.729 1164.47 107.62C1167.69 103.365 1169.3 97.6433 1169.3 90.4539V2.641H1215.69V90.4539C1215.69 105.273 1212.76 117.964 1206.88 128.528C1201 138.945 1192.95 146.795 1182.73 152.077C1172.52 157.359 1161.11 160 1148.51 160C1135.92 160 1124.72 157.359 1114.92 152.077C1105.26 146.795 1097.7 138.945 1092.25 128.528C1086.79 118.111 1084.06 105.42 1084.06 90.4539V2.641H1130.46Z" fill="url(#paint7_linear_74_222)"/>
<path d="M1309.28 1.10041C1322.16 1.10041 1333.63 3.66804 1343.71 8.80331C1353.93 13.7918 1362.18 20.9078 1368.48 30.1513C1374.92 39.3948 1379.19 50.1788 1381.29 62.5034H1332.16C1329.92 57.3682 1326.7 53.4067 1322.51 50.619C1318.45 47.6845 1313.76 46.2173 1308.44 46.2173C1300.6 46.2173 1294.37 49.2985 1289.75 55.4608C1285.27 61.6231 1283.04 69.9129 1283.04 80.3301C1283.04 90.7474 1285.27 99.0371 1289.75 105.199C1294.37 111.362 1300.6 114.443 1308.44 114.443C1313.76 114.443 1318.45 113.049 1322.51 110.261C1326.7 107.327 1329.92 103.292 1332.16 98.1568H1381.29C1379.19 110.481 1374.92 121.265 1368.48 130.509C1362.18 139.752 1353.93 146.942 1343.71 152.077C1333.63 157.066 1322.16 159.56 1309.28 159.56C1294.3 159.56 1281.29 156.259 1270.23 149.656C1259.17 142.907 1250.63 133.517 1244.61 121.486C1238.74 109.454 1235.8 95.7359 1235.8 80.3301C1235.8 64.9243 1238.74 51.2059 1244.61 39.1747C1250.63 27.1435 1259.17 17.8267 1270.23 11.2242C1281.29 4.47501 1294.3 1.10041 1309.28 1.10041Z" fill="url(#paint8_linear_74_222)"/>
<path d="M1519 2.641V41.3755H1479.53V158.459H1432.92V41.3755H1393.87V2.641H1519Z" fill="url(#paint9_linear_74_222)"/>
<defs>
<linearGradient id="paint0_linear_74_222" x1="720" y1="0" x2="720" y2="140.5" gradientUnits="userSpaceOnUse">
<stop stop-color="#EBECF0"/>
<stop offset="1" stop-color="#EBECF0" stop-opacity="0"/>
</linearGradient>
<linearGradient id="paint1_linear_74_222" x1="720" y1="0" x2="720" y2="140.5" gradientUnits="userSpaceOnUse">
<stop stop-color="#EBECF0"/>
<stop offset="1" stop-color="#EBECF0" stop-opacity="0"/>
</linearGradient>
<linearGradient id="paint2_linear_74_222" x1="720" y1="0" x2="720" y2="140.5" gradientUnits="userSpaceOnUse">
<stop stop-color="#EBECF0"/>
<stop offset="1" stop-color="#EBECF0" stop-opacity="0"/>
</linearGradient>
<linearGradient id="paint3_linear_74_222" x1="720" y1="0" x2="720" y2="140.5" gradientUnits="userSpaceOnUse">
<stop stop-color="#EBECF0"/>
<stop offset="1" stop-color="#EBECF0" stop-opacity="0"/>
</linearGradient>
<linearGradient id="paint4_linear_74_222" x1="720" y1="0" x2="720" y2="140.5" gradientUnits="userSpaceOnUse">
<stop stop-color="#EBECF0"/>
<stop offset="1" stop-color="#EBECF0" stop-opacity="0"/>
</linearGradient>
<linearGradient id="paint5_linear_74_222" x1="720" y1="0" x2="720" y2="140.5" gradientUnits="userSpaceOnUse">
<stop stop-color="#EBECF0"/>
<stop offset="1" stop-color="#EBECF0" stop-opacity="0"/>
</linearGradient>
<linearGradient id="paint6_linear_74_222" x1="720" y1="0" x2="720" y2="140.5" gradientUnits="userSpaceOnUse">
<stop stop-color="#EBECF0"/>
<stop offset="1" stop-color="#EBECF0" stop-opacity="0"/>
</linearGradient>
<linearGradient id="paint7_linear_74_222" x1="720" y1="0" x2="720" y2="140.5" gradientUnits="userSpaceOnUse">
<stop stop-color="#EBECF0"/>
<stop offset="1" stop-color="#EBECF0" stop-opacity="0"/>
</linearGradient>
<linearGradient id="paint8_linear_74_222" x1="720" y1="0" x2="720" y2="140.5" gradientUnits="userSpaceOnUse">
<stop stop-color="#EBECF0"/>
<stop offset="1" stop-color="#EBECF0" stop-opacity="0"/>
</linearGradient>
<linearGradient id="paint9_linear_74_222" x1="720" y1="0" x2="720" y2="140.5" gradientUnits="userSpaceOnUse">
<stop stop-color="#EBECF0"/>
<stop offset="1" stop-color="#EBECF0" stop-opacity="0"/>
</linearGradient>
</defs>
</svg>
