<svg width="166" height="180" viewBox="0 0 166 180" fill="none" xmlns="http://www.w3.org/2000/svg">
<g filter="url(#filter0_d_74_2239)">
<path d="M125.717 78.7172C125.717 55.1252 106.592 36 82.9998 36C59.5105 36 40.52 54.7908 40.2844 78.2791C40.1066 96.019 50.7444 111.293 66.0068 117.918C68.5608 119.026 70.7454 120.841 72.3106 123.143L79.9537 134.388C81.4152 136.537 84.5839 136.537 86.0454 134.388L93.6882 123.144C95.2486 120.848 97.4218 119.032 99.9686 117.928C115.118 111.363 125.717 96.2792 125.717 78.7172Z" fill="url(#paint0_linear_74_2239)"/>
<path d="M82.9997 133.872C82.7523 133.872 82.1317 133.806 81.7142 133.191L74.0713 121.947C72.274 119.303 69.7784 117.234 66.8545 115.966C51.8428 109.45 42.2491 94.6654 42.4132 78.3008C42.5214 67.506 46.7853 57.4003 54.4194 49.8448C62.0527 42.2901 72.2037 38.1291 82.9997 38.1291H82.9999C105.381 38.1291 123.588 56.3372 123.588 78.7178C123.588 94.9106 113.985 109.535 99.1224 115.975C96.2153 117.235 93.7275 119.3 91.9281 121.948L84.2853 133.192C83.8678 133.805 83.2472 133.872 82.9997 133.872Z" fill="url(#paint1_linear_74_2239)"/>
<path d="M82.9992 105.569C97.829 105.569 109.851 93.5474 109.851 78.7175C109.851 63.8877 97.829 51.8658 82.9992 51.8658C68.1694 51.8658 56.1475 63.8877 56.1475 78.7175C56.1475 93.5474 68.1694 105.569 82.9992 105.569Z" fill="url(#paint2_linear_74_2239)"/>
<path d="M124.381 89.3529L98.8695 63.8416C94.9008 59.6095 89.2596 56.9645 82.9999 56.9645C70.9862 56.9645 61.2471 66.7036 61.2471 78.7174C61.2471 84.9771 63.8921 90.6182 68.1241 94.587L95.0102 121.473C96.3917 119.962 98.077 118.748 99.9691 117.928C111.951 112.736 121.084 102.214 124.381 89.3529Z" fill="url(#paint3_linear_74_2239)"/>
<path d="M82.9999 100.47C95.0137 100.47 104.753 90.7311 104.753 78.7174C104.753 66.7036 95.0137 56.9645 82.9999 56.9645C70.9861 56.9645 61.2471 66.7036 61.2471 78.7174C61.2471 90.7311 70.9861 100.47 82.9999 100.47Z" fill="url(#paint4_linear_74_2239)"/>
</g>
<path fill-rule="evenodd" clip-rule="evenodd" d="M81.2386 78.0131L81.201 77.7631C80.401 72.9131 82.2635 69.9381 84.426 68.2881C84.626 68.1506 84.5386 67.8256 84.2886 67.8131C78.6761 67.6506 74.026 69.4381 71.826 70.4631C70.976 70.8631 70.4385 71.9506 70.501 72.9006C70.551 73.6256 70.701 74.1256 70.951 74.8006C73.6385 82.1881 78.0385 80.9131 80.726 79.2256C81.126 78.9756 81.3261 78.4881 81.2386 78.0131ZM89.063 87.5621C88.963 87.6746 88.763 87.5496 88.813 87.4121C89.363 85.5871 90.0755 80.7746 83.7005 77.7246C83.313 77.5371 83.0255 77.1871 82.9755 76.7621C82.2005 69.8121 88.188 68.5621 88.188 68.5621C88.6755 68.4621 89.188 68.4621 89.663 68.5996C91.013 68.9621 92.388 69.4621 93.7755 70.1371C94.963 70.7121 95.6505 71.9621 95.4755 73.2746C95.063 76.3746 93.688 82.3496 89.063 87.5621ZM86.8389 87.3501L85.5763 90.1251C85.2513 90.8251 84.7763 91.4376 84.1388 91.8626C83.4888 92.3001 82.6388 92.3376 81.9638 91.9126C79.9138 90.6126 75.4389 87.2751 72.7264 81.4876C72.6264 81.2876 72.9013 81.0876 73.0763 81.2126C73.7888 81.7126 74.5513 82.0626 75.3888 82.2626C75.9013 82.3751 76.4264 82.4251 76.9264 82.4251C79.2514 82.4251 81.3513 81.2376 82.7513 80.2126C83.1638 79.9126 83.7138 79.8501 84.1388 80.1126C85.5388 80.9876 86.4764 82.0376 86.9389 83.2251C87.6832 85.1789 86.9776 86.992 86.8556 87.3055C86.8465 87.3289 86.8406 87.344 86.8389 87.3501Z" fill="url(#paint5_linear_74_2239)"/>
<defs>
<filter id="filter0_d_74_2239" x="0.282227" y="0" width="165.435" height="180" filterUnits="userSpaceOnUse" color-interpolation-filters="sRGB">
<feFlood flood-opacity="0" result="BackgroundImageFix"/>
<feColorMatrix in="SourceAlpha" type="matrix" values="0 0 0 0 0 0 0 0 0 0 0 0 0 0 0 0 0 0 127 0" result="hardAlpha"/>
<feOffset dy="4"/>
<feGaussianBlur stdDeviation="20"/>
<feComposite in2="hardAlpha" operator="out"/>
<feColorMatrix type="matrix" values="0 0 0 0 0 0 0 0 0 0 0 0 0 0 0 0 0 0 0.5 0"/>
<feBlend mode="normal" in2="BackgroundImageFix" result="effect1_dropShadow_74_2239"/>
<feBlend mode="normal" in="SourceGraphic" in2="effect1_dropShadow_74_2239" result="shape"/>
</filter>
<linearGradient id="paint0_linear_74_2239" x1="57.2178" y1="52.934" x2="142.451" y2="138.167" gradientUnits="userSpaceOnUse">
<stop stop-color="#FF7044"/>
<stop offset="1" stop-color="#F92814"/>
</linearGradient>
<linearGradient id="paint1_linear_74_2239" x1="73.839" y1="69.5808" x2="43.887" y2="39.6288" gradientUnits="userSpaceOnUse">
<stop stop-color="#FF7044" stop-opacity="0"/>
<stop offset="1" stop-color="#FFA425"/>
</linearGradient>
<linearGradient id="paint2_linear_74_2239" x1="99.1905" y1="94.9089" x2="45.6357" y2="41.354" gradientUnits="userSpaceOnUse">
<stop stop-color="#FF7044"/>
<stop offset="1" stop-color="#F92814"/>
</linearGradient>
<linearGradient id="paint3_linear_74_2239" x1="110.935" y1="106.653" x2="87.1991" y2="82.9166" gradientUnits="userSpaceOnUse">
<stop stop-color="#F92814" stop-opacity="0"/>
<stop offset="1" stop-color="#C1272D"/>
</linearGradient>
<linearGradient id="paint4_linear_74_2239" x1="77.6748" y1="70.5966" x2="90.5291" y2="90.1993" gradientUnits="userSpaceOnUse">
<stop stop-color="white"/>
<stop offset="1" stop-color="#E2E8F1"/>
</linearGradient>
<linearGradient id="paint5_linear_74_2239" x1="75.4531" y1="71.9362" x2="95.9194" y2="96.4779" gradientUnits="userSpaceOnUse">
<stop stop-color="#FFB156"/>
<stop offset="1" stop-color="#F13321"/>
</linearGradient>
</defs>
</svg>
