<svg width="133" height="80" viewBox="0 0 133 80" fill="none" xmlns="http://www.w3.org/2000/svg">
<path d="M25.7997 13.3333C22.3152 13.3338 18.9195 14.4379 16.0953 16.4884C13.2712 18.539 11.1622 21.4317 10.0683 24.7555C10.0152 24.9066 9.971 25.0577 9.92676 25.2088L9.564 26.6666L0.362305 66.6666H23.5346C26.819 66.6612 30.0226 65.6431 32.7125 63.7498C35.4025 61.8565 37.4491 59.1793 38.5759 56.0799L39.4607 52.2666L48.4235 13.3333H25.7997Z" fill="#0B67B1"/>
<path d="M69.515 0C65.9115 0.000290765 62.4066 1.18183 59.5322 3.36524C56.6579 5.54864 54.5712 8.61465 53.589 12.0978C53.4371 12.6211 53.3131 13.1523 53.2174 13.6889L37.9727 80H60.5876C64.2773 79.9997 67.8615 78.7624 70.772 76.484C73.6825 74.2056 75.7529 71.0166 76.6552 67.4222L92.1565 0H69.515Z" fill="#F27023"/>
<path d="M107.138 13.3333C103.777 13.3338 100.496 14.3612 97.7309 16.279C94.9653 18.1969 92.8459 20.9145 91.6539 24.071C91.5301 24.391 91.1054 25.7155 91.1054 25.7155L81.7002 66.6666H104.324C108.025 66.6652 111.618 65.4202 114.533 63.1296C117.448 60.8391 119.517 57.6347 120.409 54.0266L129.752 13.3333H107.138Z" fill="#0DB04B"/>
<path d="M123.179 61.6177C123.179 60.6416 123.467 59.6874 124.007 58.8759C124.547 58.0644 125.314 57.4321 126.212 57.059C127.11 56.6859 128.098 56.5887 129.05 56.7798C130.003 56.9708 130.878 57.4416 131.565 58.1324C132.251 58.8232 132.718 59.7031 132.906 60.6607C133.095 61.6182 132.996 62.6104 132.623 63.5117C132.25 64.413 131.62 65.1829 130.811 65.7239C130.002 66.2649 129.052 66.5527 128.08 66.551C126.78 66.5486 125.533 66.0278 124.614 65.1029C123.695 64.178 123.179 62.9245 123.179 61.6177ZM131.796 61.6177C131.75 60.8913 131.493 60.1945 131.057 59.6129C130.622 59.0314 130.026 58.5904 129.345 58.3443C128.663 58.0981 127.924 58.0576 127.22 58.2276C126.516 58.3976 125.876 58.7708 125.38 59.3012C124.884 59.8317 124.553 60.4962 124.428 61.2131C124.303 61.93 124.389 62.668 124.676 63.3363C124.963 64.0046 125.438 64.5741 126.043 64.9747C126.648 65.3753 127.356 65.5895 128.08 65.591C128.587 65.5844 129.087 65.4754 129.551 65.2703C130.014 65.0653 130.432 64.7684 130.779 64.3976C131.126 64.0267 131.395 63.5894 131.569 63.1117C131.744 62.6341 131.821 62.1259 131.796 61.6177ZM126.196 58.8088H128.257C129.593 58.8088 130.319 59.271 130.319 60.4443C130.334 60.6425 130.307 60.8417 130.24 61.0286C130.173 61.2155 130.066 61.3857 129.928 61.5279C129.79 61.6702 129.623 61.7811 129.438 61.8533C129.254 61.9255 129.057 61.9573 128.859 61.9465L130.354 64.391H129.293L127.859 61.9821H127.231V64.391H126.196V58.8088ZM127.231 61.1999H128.116C128.717 61.1999 129.257 61.111 129.257 60.3643C129.257 59.6177 128.655 59.5999 128.125 59.5999H127.24L127.231 61.1999Z" fill="#0B67B1"/>
<path d="M119.851 27.8045C119.434 27.39 118.937 27.0658 118.391 26.8517C117.845 26.6377 117.26 26.5384 116.675 26.56H96.183V26.7378C96.1 27.1117 96.0526 27.4927 96.0415 27.8756C96.0152 28.453 96.1077 29.0296 96.3132 29.5695C96.5187 30.1094 96.8328 30.6009 97.2359 31.0134C97.6513 31.4303 98.1477 31.7567 98.6942 31.9724C99.2407 32.188 99.8255 32.2882 100.412 32.2667H104.836L100.032 53.2H100.306C101.842 53.1809 103.323 52.621 104.491 51.6178C105.717 50.6636 106.576 49.3134 106.924 47.7956L110.463 32.2667H120.877V32.08C120.964 31.6978 121.011 31.3076 121.019 30.9156C121.046 30.3444 120.956 29.7736 120.755 29.2386C120.555 28.7035 120.247 28.2154 119.851 27.8045Z" fill="white"/>
<path d="M75.666 26.5244H62.005H56.3248L50.2109 53.191H50.4852C52.0232 53.1724 53.5053 52.6089 54.6702 51.5999C55.8951 50.6452 56.7545 49.2952 57.1034 47.7777L58.3509 42.2933H72.1446C73.6812 42.2781 75.1644 41.7248 76.3384 40.7288C77.5742 39.7609 78.4474 38.4012 78.8158 36.871L79.9483 32.0444C80.0289 31.6583 80.0734 31.2654 80.0811 30.871C80.1072 30.2982 80.0136 29.7262 79.8064 29.1919C79.5991 28.6576 79.2828 28.1728 78.8778 27.7688C78.455 27.3525 77.9521 27.0273 77.3998 26.8134C76.8475 26.5994 76.2575 26.501 75.666 26.5244ZM60.6867 32.2221H74.4008L73.3744 36.5955H59.6515L60.6867 32.2221Z" fill="white"/>
<path d="M16.0478 28.1069C14.927 28.9616 14.0984 30.145 13.6766 31.4936L8.7041 53.2003H8.97838C10.5124 53.1828 11.9911 52.6225 13.1545 51.618C14.3789 50.6613 15.2406 49.3126 15.5965 47.7958L16.8706 42.2758H26.4085C27.9584 42.247 29.4502 41.6783 30.6289 40.6669C31.8666 39.7078 32.7357 38.3479 33.0886 36.818L33.1505 36.5425H18.1889L19.1887 32.1958H33.3452C34.8773 32.1771 36.3547 31.6205 37.5213 30.6225C38.7382 29.6476 39.5974 28.2934 39.9633 26.7736L40.0341 26.498H20.2416C18.6976 26.5157 17.2105 27.0862 16.0478 28.1069Z" fill="white"/>
</svg>
